<?xml version="1.0" encoding="UTF-8" standalone="no"?>
<svg width="120px" height="60px" viewBox="0 0 120 60" version="1.1" xmlns="http://www.w3.org/2000/svg" xmlns:xlink="http://www.w3.org/1999/xlink">
    <!-- Generator: Sketch 46.2 (44496) - http://www.bohemiancoding.com/sketch -->
    <title>Group 2</title>
    <desc>Created with Sketch.</desc>
    <defs>
        <linearGradient x1="83.3662857%" y1="107.793714%" x2="16.633%" y2="-7.792%" id="linearGradient-1">
            <stop stop-color="#3C9EDF" offset="0%"></stop>
            <stop stop-color="#2C7CD3" offset="100%"></stop>
        </linearGradient>
    </defs>
    <g id="Page-1" stroke="none" stroke-width="1" fill="none" fill-rule="evenodd">
        <g id="logo" fill="url(#linearGradient-1)">
            <g id="Group-2">
                <path d="M5.14285714,0 L114.857143,0 C117.696,0 120,1.15114286 120,2.57142857 L120,57.4285714 C120,58.8488571 117.696,60 114.857143,60 L5.14285714,60 C2.30228571,60 0,58.8488571 0,57.4285714 L0,2.57142857 C0,1.15114286 2.30228571,0 5.14285714,0 Z M38.198556,41.5916672 C38.198556,45.0364144 40.5379061,46.9980065 45.2138989,47 C48.0108303,47 49.765343,46.3780318 51,45.516845 L49.5703971,42.7897535 C48.91787,43.3160343 47.683213,43.7944714 46.2563177,43.7944714 C44.1768953,43.7944714 43.1371841,42.5505349 43.1371841,40.8281613 L43.1371841,26.4730547 L49.5081227,26.4730547 L49.5081227,23.3153698 L43.1371841,23.3153698 L43.1371841,17 L38.198556,17 L38.198556,23.3153698 L33,23.3153698 L33,26.4730547 L38.198556,26.4730547 L38.198556,41.5916672 Z M69,42.5029586 C71.2966258,45.5207101 74.3900401,47 78.1396333,47 C83.9515027,47 87,43.1538462 87,38.3609467 C87,27.2366864 72.9839427,31.3195266 72.9839427,25.1065089 C72.9839427,22.5621302 74.9056092,20.6094675 77.9990235,20.6094675 C80.9518281,20.6094675 83.3890637,22.147929 84.7482912,24.2189349 L86.3887382,21.1420118 C84.6076815,18.8343195 81.8892264,17 77.9990235,17 C72.6070305,17 69.607356,20.7278107 69.607356,25.2248521 C69.607356,35.816568 83.6234133,31.556213 83.6234133,38.4792899 C83.6234133,41.3195266 81.6997939,43.3905325 78.2333731,43.3905325 C75.1380059,43.3905325 72.280894,41.4970414 70.7810567,39.3076923 L69,42.5029586 Z" id="Shape"></path>
            </g>
        </g>
    </g>
</svg>